Coordinates
version=1
nRows=7
nColumns=40
inDegrees=yes

Units are S.I. units (second, meters, Newtons, ...)
Angles are in degrees.

endheader
time	pelvis_tilt	pelvis_list	pelvis_rotation	pelvis_tx	pelvis_ty	pelvis_tz	hip_flexion_r	hip_adduction_r	hip_rotation_r	knee_angle_r	knee_angle_r_beta	ankle_angle_r	subtalar_angle_r	mtp_angle_r	hip_flexion_l	hip_adduction_l	hip_rotation_l	knee_angle_l	knee_angle_l_beta	ankle_angle_l	subtalar_angle_l	mtp_angle_l	lumbar_extension	lumbar_bending	lumbar_rotation	arm_flex_r	arm_add_r	arm_rot_r	elbow_flex_r	pro_sup_r	wrist_flex_r	wrist_dev_r	arm_flex_l	arm_add_l	arm_rot_l	elbow_flex_l	pro_sup_l	wrist_flex_l	wrist_dev_l
     28.07742857	     -3.75273155	     -5.82790582	      4.91215766	      0.84788049	      0.93227952	      0.52584176	      6.14427042	      6.27861837	    -18.11183445	      9.08523851	      9.08523851	      9.73125999	      4.24273961	     -6.44487982	     33.76491561	    -11.36149786	      1.48335023	     37.46189663	     37.46189663	     11.83568857	    -16.21101771	     14.22822120	     -8.57804977	      7.57729068	      4.95809589	     33.36843126	    -18.46143296	     -8.33933291	     65.18011262	     45.25197705	      0.00000000	      0.00000000	     -4.19417168	     -6.87803501	      2.73761841	     24.31500729	     45.16210166	      0.00000000	      0.00000000
     28.08985714	     -3.72037235	     -5.61101704	      5.27129683	      0.84638194	      0.93194557	      0.52523539	      5.46655791	      6.13617014	    -18.16016973	      8.65686637	      8.65686637	      9.72844790	      4.03559642	     -7.33100632	     33.42328203	    -10.63574630	      1.50989585	     32.98324076	     32.98324076	     10.31187784	    -15.78317129	     11.71741102	     -8.91964351	      7.33890066	      5.11315506	     33.83663303	    -18.80250798	     -8.95290538	     70.02123208	     45.13238675	      0.00000000	      0.00000000	     -5.42200837	     -7.05857285	      3.94225414	     24.82949559	     44.93164770	      0.00000000	      0.00000000
     28.10228571	     -3.82092599	     -5.69588515	      5.65896361	      0.84490930	      0.93116919	      0.52461559	      5.09157754	      6.25852184	    -18.32354969	      8.51875142	      8.51875142	     10.06260655	      3.90559135	     -7.46744837	     33.53099546	    -10.25308068	      1.49831826	     29.18624406	     29.18624406	     10.15795154	    -14.27153392	     12.08989647	     -8.85425738	      7.44442011	      5.07236505	     35.38012107	    -18.94131029	     -9.19713139	     71.01812426	     45.11752311	      0.00000000	      0.00000000	     -6.40057750	     -7.05744433	      4.13867816	     24.34718171	     44.88508081	      0.00000000	      0.00000000
     28.11471429	     -3.84640258	     -5.82405967	      6.07526551	      0.84374413	      0.93041303	      0.52393714	      4.53855461	      6.44426051	    -18.71754467	      8.22991628	      8.22991628	     10.37033985	      4.17499605	     -7.63659520	     33.46052618	     -9.91860245	      1.38741536	     25.44954154	     25.44954154	      9.46951401	    -12.69822697	     11.18585659	     -8.89227674	      7.59323221	      5.03155065	     36.53905621	    -18.92763327	     -9.83965079	     73.06154545	     45.09745268	      0.00000000	      0.00000000	     -7.35284653	     -7.13300486	      5.09830980	     23.94432576	     44.72936998	      0.00000000	      0.00000000
     28.12714286	     -4.00147500	     -6.02769123	      6.49428892	      0.84258314	      0.92939206	      0.52313547	      4.22095633	      6.68326200	    -18.92381943	      8.10114747	      8.10114747	     10.71488934	      4.06234944	     -7.75412326	     33.67283316	     -9.62305655	      1.23162122	     22.27938625	     22.27938625	      9.20919923	    -10.97091420	     11.66879022	     -8.68731865	      7.84019590	      5.04820954	     37.84588693	    -19.22990123	    -10.05317390	     73.83974247	     45.08697653	      0.00000000	      0.00000000	     -8.15623792	     -7.08079365	      5.19034801	     23.64160230	     44.70304874	      0.00000000	      0.00000000
     28.13957143	     -3.95220066	     -6.00604096	      6.87063154	      0.84185736	      0.92886970	      0.52233109	      3.52376763	      6.73758424	    -19.10956972	      7.78353386	      7.78353386	     11.06149030	      4.18730488	     -7.81170254	     33.47486635	     -9.21165494	      0.61247415	     19.31932863	     19.31932863	      8.82041281	     -9.02239141	     12.11656423	     -8.72812397	      7.74502435	      4.81444536	     38.91908294	    -19.03819691	    -10.23467469	     74.99831940	     45.06270911	      0.00000000	      0.00000000	     -9.06084555	     -7.12299561	      5.33560558	     23.23392084	     44.66867224	      0.00000000	      0.00000000
     28.15200000	     -4.06467680	     -6.20495695	      7.27761649	      0.84112061	      0.92792168	      0.52138321	      3.06401835	      7.00019421	    -19.41518324	      7.51388545	      7.51388545	     11.35869281	      4.25931309	     -7.85789625	     33.69512071	     -8.93761919	      0.15579218	     17.13277863	     17.13277863	      8.42769180	     -7.46584265	     12.48528371	     -8.56519202	      7.95665164	      4.69350959	     39.99221500	    -19.15069853	    -10.48534535	     75.89490761	     45.04868998	      0.00000000	      0.00000000	     -9.75905676	     -7.05311815	      5.42836446	     22.96099512	     44.64449180	      0.00000000	      0.00000000
